<mxfile modified="2021-07-17T10:48:31.356Z" host="app.diagrams.net" agent="5.0 (Macintosh; Intel Mac OS X 10_15_7) AppleWebKit/537.36 (KHTML, like Gecko) Chrome/91.0.4472.114 Safari/537.36" etag="M18Vi7mgqg1I7C3zXmAO" version="14.8.0" type="github">
  <diagram name="Page-1" id="97a40813-6b03-0c74-37c1-0168de264b11">
    <mxGraphModel dx="815" dy="1581" grid="1" gridSize="10" guides="1" tooltips="1" connect="1" arrows="1" fold="1" page="1" pageScale="1" pageWidth="827" pageHeight="1169" background="#ffffff" math="0" shadow="0">
      <root>
        <mxCell id="0" />
        <mxCell id="1" parent="0" />
        <mxCell id="PN5amJy842sLwaP2SSI1-33" style="edgeStyle=none;rounded=0;sketch=1;orthogonalLoop=1;jettySize=auto;html=1;entryX=0.731;entryY=1;entryDx=0;entryDy=0;entryPerimeter=0;fontColor=#0066CC;" edge="1" parent="1" source="PN5amJy842sLwaP2SSI1-30" target="PN5amJy842sLwaP2SSI1-20">
          <mxGeometry relative="1" as="geometry" />
        </mxCell>
        <mxCell id="PN5amJy842sLwaP2SSI1-30" value="View V2" style="whiteSpace=wrap;html=1;fontColor=#333333;fillStyle=solid;fontStyle=1;strokeColor=#6666FF;fillColor=#CCCCFF;sketch=1;" vertex="1" parent="1">
          <mxGeometry x="440" y="-833" width="120" height="60" as="geometry" />
        </mxCell>
        <mxCell id="PN5amJy842sLwaP2SSI1-32" style="edgeStyle=none;rounded=0;sketch=1;orthogonalLoop=1;jettySize=auto;html=1;entryX=0.5;entryY=1;entryDx=0;entryDy=0;fontColor=#0066CC;" edge="1" parent="1" source="PN5amJy842sLwaP2SSI1-29" target="PN5amJy842sLwaP2SSI1-20">
          <mxGeometry relative="1" as="geometry" />
        </mxCell>
        <mxCell id="PN5amJy842sLwaP2SSI1-29" value="View" style="whiteSpace=wrap;html=1;fontColor=#333333;fillStyle=solid;fontStyle=1;strokeColor=#CC0066;fillColor=#FFCCE6;sketch=1;" vertex="1" parent="1">
          <mxGeometry x="260" y="-833" width="120" height="60" as="geometry" />
        </mxCell>
        <mxCell id="PN5amJy842sLwaP2SSI1-3" value="Client C1" style="text;html=1;strokeColor=none;fillColor=none;align=center;verticalAlign=middle;whiteSpace=wrap;fontStyle=1;sketch=1;" vertex="1" parent="1">
          <mxGeometry x="105" y="-760" width="70" height="20" as="geometry" />
        </mxCell>
        <mxCell id="PN5amJy842sLwaP2SSI1-5" value="" style="outlineConnect=0;dashed=0;verticalLabelPosition=bottom;verticalAlign=top;align=center;html=1;fontSize=12;fontStyle=0;aspect=fixed;pointerEvents=1;shape=mxgraph.aws4.user;fillColor=#333333;strokeWidth=1;sketch=1;" vertex="1" parent="1">
          <mxGeometry x="121" y="-740" width="38" height="38" as="geometry" />
        </mxCell>
        <mxCell id="PN5amJy842sLwaP2SSI1-31" style="rounded=0;orthogonalLoop=1;jettySize=auto;html=1;fontColor=#0066CC;sketch=1;" edge="1" parent="1" source="PN5amJy842sLwaP2SSI1-6" target="PN5amJy842sLwaP2SSI1-20">
          <mxGeometry relative="1" as="geometry" />
        </mxCell>
        <mxCell id="PN5amJy842sLwaP2SSI1-6" value="View" style="whiteSpace=wrap;html=1;fontColor=#333333;fillStyle=solid;fontStyle=1;fillColor=#B3FF66;strokeColor=#66FF66;sketch=1;" vertex="1" parent="1">
          <mxGeometry x="80" y="-833" width="120" height="60" as="geometry" />
        </mxCell>
        <mxCell id="PN5amJy842sLwaP2SSI1-7" value="" style="shape=image;verticalLabelPosition=bottom;labelBackgroundColor=#ffffff;verticalAlign=top;aspect=fixed;imageAspect=0;image=data:image/png,iVBORw0KGgoAAAANSUhEUgAAAPwAAAD8CAYAAABTq8lnAAAN8UlEQVR4Ae2dwW4URxRF+RYsdkj5Fb6A3yALpLDPB0RykCKhZJ0NK/YOyoIVii2BvEEmQrZiWUk2YUFHF1R4aKbtGk931Zt3D9KoPU1PV3W9e+q+ma6uunWLf7QALeDVAi9/uP2Il18bHP14+zvi7hX3jz2bgn64vzfwog3QQG4NADwdHR29kQYA3ijYuHdu966JL8ADPA5vpAGANwp2jQNwTO4sAOABHoc30gDAGwUb987t3jXxBXiAx+GNNADwRsGucQCOyZ0FADzA4/BGGgB4o2Dj3rnduya+NwL+9ODbgRdtgAbiaKAGdh1zY+CHi5OBF22ABvprQB0vwNMh0SGbaADgTQKNu/Z31wgxAHiAx92NNADwRsGO4DDUoW+mAfAAj8MbaQDgjYKNu/Z11wjtD/AAj8MbaQDgjYIdwWGoQ98sA+ABHoc30gDAGwUbd+3rrhHaH+ABHoc30gDAGwU7gsNQh75ZBsADPA5vpAGANwo27trXXSO0P8ADPA5vpAGANwp2BIehDn2zDIAHeBzeSAMAbxRs3LWvu0Zof4AHeBzeSAMAbxTsCA5DHfpmGQAP8Di8kQYA3ijYuGtfd43Q/gAP8Di8kQYA3ijYERyGOvTNMgAe4HF4Iw0AvFGwcde+7hqh/QEe4HF4Iw0AvFGwIzgMdeibZQA8wOPwRhoAeKNg46593TVC+wM8wOPwRhoAeKNgR3AY6tA3ywB4gMfhjTQA8EbBxl37umuE9gf4SuD/+/P34Z+jX4bzF98PZ88fDqcHDz5u9V779f8RAkodloM6gwYA/grg//7jp+Hts/vD65+/GQ7396596Tgdr88B3nLgtWzbbBoA+BHwH/46Hs5+e1gN+VRHIPh1ng/nx8A/auOWwN6krMwaAPgVMSo9f/Xk7rVOPgX5uv06n857E+HxmfZZQnYNAPzFyfD+3YvhzdN7s4I+hl/nVzlA3B7imjZ30YA98P++/nXr9H0M99R7pfkqr0aAHNOuY3DSgDXw+nX96PGdRZ19DL/KU7kA3Q7oq9raTQO2wKtXbw17gV/l4vT9gXfUgCXw+r5We6utQDr3VuXznb4f9K4asAR+6R/oajsH1eOqdJP/W65DcNWAHfC67VILZIvjuGW3HNRTHaazBqyA1yCYue+zb9spqD4a6DElTvbP2yG4a8AKeI182xbQJT6vegH2vGBPtae7BqyA7/1D3VRnoXpNCZT983YE7hqwAV4PQUwBF2E/D9zMC/a6jhINnAw2wOsptghgT9VB9VsnUvbN1xGgASPgo6ZypQMgrZ8P7KlOEg2YAK+JCwpYkbdMorEc9GjgU9tapPQaLx0Z9FI3xtgvBzwaMAI+2kCLAvh4yyCc5YBHA0bAaw66MVwR36ueU98/2b9dZ4AGjIDXhJMRAR/XSfUE7O3Anmo/NGAEPL37MhBNwRVxPxowAp7vbwCPBoyA5xdagEcDRsBzDxbg0YAR8PpOySgroEcDJiPtBDzjqAEeDRgBz5NSAI8GjICPnNbz4Ey7zihqWt9KAxZj6ct9YffZTko7OG/dNWAFvOaOCzmnHQtONhth6K4BK+DlbNEGYKg+zo7b49qdNWAHvATmOid5D7iilumqAUvgXVcdiQpfj3q5asASeAnMcV2xHmBFLtNRA7bAS4gaX916QUlWj213C66ms3HTgDXwEoR6+Vb3ZlWOyqsRIse06xicNGAPvMDS97mlf8TR+VUOILcDeZO2dtEAwF9cClC3a+a+T6/zcevtso03gbDHsdk1APArwEtgWmxQo7G2TfP1eZ2HhSJ3B/bSwWTWAMCPgC9B11YPW+gJq1r4dZyO1+dWz8Pfuwd9iVk2DQD8FcCXoGurCRT0i65SPs2PpkkRtdV77df/rx7P37sL+VTsMmgA4CuBnxIB+/OBnTmmAA/wZCZGGgB4o2Bndi6urS7TAniAx+GNNADwRsHGBetcMHM7ATzA4/BGGgB4o2Bndi6urS57AXiAx+GNNADwRsHGBetcMHM7ATzA4/BGGgB4o2Bndi6urS57AXiAx+GNNADwRsHGBetcMHM7ATzA4/BGGgB4o2Bv4lwZHgXd5HpdjgV4gP/s8Nkme3CBeJPrBHhz4DUF16xTerFO3ucOdBMQWx0L8MbAZ5+wsRVEu1QOwBsC7zIl8y6B2KquAG8GvNOiC60g2qVyAN4IeLdllXYJxFZ1BXgT4OXsrdfRO9zfG/RSuSyxFWPQD8AbAK/v7LVz6xdI596qfJba6g89wBsAv/S6ebWdg+rRKnWlnPWdC8AnB1633mqBbHGc6gOM62Fs0S4Anxh4rZE29+KY23YKqg/r7QE8vf4CHY9G0G0L6BKfV71auBllfN2x4PALgBZFaL1/qJvqLFSvKG3kVg+ATwq8HoSZAi7CflbY/dp9W3Q+AJ8UeC1bHQHsqTqofi0EThlfdiwAnxT4qOl86QBI678EsVXHBPAJgdfkFQWsyFvVs5XQKedTBwPwCYHXmPnIoJe6qZ6A2NbpAT4h8NEG2xTAx1sG4bSFXZ0rwCcE/ux5zPvvY+BVTxy+LfQAnxD404MHO5HSq54AD/CIYMtOCIdvC9EudVo4/JZwRQw23+EBfkqXAJ8QeH6lB3iATwj2VFC5Dw/wU9rA4ZN2BIy0A/p10AN8UuAZSw/wAJ8U7nWB5Wk5gF+nCxw+cScQNa3nwZl+nRHAJwaeGW/6gbXOXSPsA/jEwGvuuJBz2rHgZLfBZQCfGHg5SrRBODww0zfrAPjkwAt65qXvC1mEVL7UAeANgGflGYAHeAPQS5C1ZW05oJcOcHgj8Fk9FugB3gj44vSt7s+rHFaNjdXJALwZ8IJe3+mX/iFP52e12Fiwk9Ibwq6gl5dukc19n17n49bbZRuXto6yxeFXAIgSlJb10IKTGpG3bZqvz+s8LBQZF3bpCuDNgV/tXPTAjZ6yq4Vfx+l4lo2KDflqjAEe4D+n+KvC0CQa+lVf6bnmyNOEk9rqvfaziMTuQL4aV4AH+LXAr4qEv3cT7nVxA3iAB3gjDQC8UbDX9fjsy+PeNbEEeIDH4Y00APBGwa5xAI7J7fgAD/A4vJEGAN4o2Lh3bveuiS/AAzwOb6QBgDcKdo0DcEzuLADgAR6HN9IAwBsFG/fO7d418QV4gMfhjTQA8EbBrnEAjsmdBQA8wOPwRhoAeKNg49653bsmvgAP8Di8kQYA3ijYNQ7AMbmzAIAHeBzeSAMAbxRs3Du3e9fEF+ABHoc30gDAVwabSR1xxwwaAPgrgGfaZiDPpgGAHwGvhRRmXZjh/JiUedTGNd81ex6TWQMAvyJGll7C0bNrAOBZXJEMxEgD9sBrOePapZUO9/eGbV4qh+WT42URThqwBl5LJh09vrMVxJt2ACpP5fb8jkrZl52OmwZsgVev3hr20jmoXJz+ErpeHZCjBiyBf//uRbM0vkA+3iq9Vz16id29XFcNWAL/5um9pmn8GPbyXvVwB6/X9btqwA543XYpwEXYqj69RO9arrMGrID/cH48vHpyNxTwqo8GerjC1/q63TVgBbxG0EVw9XEdVK/Wwnctz10DVsC3ut8+Bvq696qXK4Ctr9tdAzbA6yGI68Dr+f+qX2vxu5WHBk4GG+DfPrsfGnjVzw3A1teLBoyAj5rKlayCtH75gThowAR4TVxQwIq8VT1bu55LeWjgU4dqkdJrvHRk0EvdGGO/nMujASPgow20KICPtwzCWQ54NGAE/NnzmPffx8Crni4pduvrRANGwJ8ePNiJlF71bA2CS3lowAh4evflUuVd6TDQgBHwfH8DeDRgBDy/0AI8GjACnnuwAI8GjIDX90xGWQE9GjAZaSfgGUcN8GjACHielAJ4NGAEfOS0ngdn2nVGUdP6VhqwGEtf7hW7z3ZS2sF5664BK+A1d1zIOe1YcLLZCEN3DVgBL2eLNgBD9XF23B7X7qwBO+AlMNc5yXvAFbVMVw1YAu+66khU+HrUy1UDlsBLYI7rivUAK3KZjhqwBV5C1Pjq1gtKsnpsu1twNZ2NmwasgZcg1Mu3ujerclRejRA5pl3H4KQBe+AFlr7PLf0jjs6vcgC5HcibtLWLBgD+4lKAul0z9316nY9bb5dtvAmEPY7NrgGAXwFeAtNigxqNtW2ar8/rPCwUuTuwlw4mswYAfgR8Cbq2ethCT1jVwq/jdLw+t3oe/t496EvMsmkA4K8AvgRdW02goF90lfJpfjRNiqit3mu//n/1eP7eXcinYpdBAwBfCfyUCNifD+zMMQV4gCczMdIAwBsFO7NzcW11mRbAAzwOb6QBgDcKNi5Y54KZ2wngAR6HN9IAwBsFO7NzcW112QvAAzwOb6QBgDcKNi5Y54KZ2wngAR6HN9IAwBsFO7NzcW112QvAAzwOb6QBgDcKNi5Y54KZ2wngAR6HN9IAwBsFO7NzcW112QvAAzwOb6QBgDcKNi5Y54KZ2wngAR6HN9IAwBsFO7NzcW112QvAAzwOb6QBgDcKNi5Y54KZ2wngAR6HN9IAwBsFO7NzcW112QvAAzwOb6QBgDcKNi5Y54KZ2wngAR6HN9IAwBsFO7NzcW112QvAAzwOb6QBgDcKNi5Y54KZ26kJ8CqEF22ABmJo4HB/b6h53dK/lz/cflRzMMfUNSrtRDtF1QDAV/aMUQNIvehcNtEAwAN8VSq4iag4Nm4nBPAAD/BGGgB4o2DjvHGdt1VsAB7gcXgjDQC8UbBbuQjlxM0kAB7gcXgjDQC8UbBx3rjO2yo2AA/wOLyRBv4H/fhzYZDvMk0AAAAASUVORK5CYII=;sketch=1;" vertex="1" parent="1">
          <mxGeometry x="173" y="-799" width="27" height="27" as="geometry" />
        </mxCell>
        <mxCell id="PN5amJy842sLwaP2SSI1-12" value="Client C2" style="text;html=1;strokeColor=none;fillColor=none;align=center;verticalAlign=middle;whiteSpace=wrap;fontStyle=1;sketch=1;" vertex="1" parent="1">
          <mxGeometry x="285" y="-760" width="70" height="20" as="geometry" />
        </mxCell>
        <mxCell id="PN5amJy842sLwaP2SSI1-13" value="" style="outlineConnect=0;dashed=0;verticalLabelPosition=bottom;verticalAlign=top;align=center;html=1;fontSize=12;fontStyle=0;aspect=fixed;pointerEvents=1;shape=mxgraph.aws4.user;fillColor=#333333;strokeWidth=1;sketch=1;" vertex="1" parent="1">
          <mxGeometry x="301" y="-740" width="38" height="38" as="geometry" />
        </mxCell>
        <mxCell id="PN5amJy842sLwaP2SSI1-15" value="" style="shape=image;verticalLabelPosition=bottom;labelBackgroundColor=#ffffff;verticalAlign=top;aspect=fixed;imageAspect=0;image=data:image/png,iVBORw0KGgoAAAANSUhEUgAAAPwAAAD8CAYAAABTq8lnAAAN8UlEQVR4Ae2dwW4URxRF+RYsdkj5Fb6A3yALpLDPB0RykCKhZJ0NK/YOyoIVii2BvEEmQrZiWUk2YUFHF1R4aKbtGk931Zt3D9KoPU1PV3W9e+q+ma6uunWLf7QALeDVAi9/uP2Il18bHP14+zvi7hX3jz2bgn64vzfwog3QQG4NADwdHR29kQYA3ijYuHdu966JL8ADPA5vpAGANwp2jQNwTO4sAOABHoc30gDAGwUb987t3jXxBXiAx+GNNADwRsGucQCOyZ0FADzA4/BGGgB4o2Dj3rnduya+NwL+9ODbgRdtgAbiaKAGdh1zY+CHi5OBF22ABvprQB0vwNMh0SGbaADgTQKNu/Z31wgxAHiAx92NNADwRsGO4DDUoW+mAfAAj8MbaQDgjYKNu/Z11wjtD/AAj8MbaQDgjYIdwWGoQ98sA+ABHoc30gDAGwUbd+3rrhHaH+ABHoc30gDAGwU7gsNQh75ZBsADPA5vpAGANwo27trXXSO0P8ADPA5vpAGANwp2BIehDn2zDIAHeBzeSAMAbxRs3LWvu0Zof4AHeBzeSAMAbxTsCA5DHfpmGQAP8Di8kQYA3ijYuGtfd43Q/gAP8Di8kQYA3ijYERyGOvTNMgAe4HF4Iw0AvFGwcde+7hqh/QEe4HF4Iw0AvFGwIzgMdeibZQA8wOPwRhoAeKNg46593TVC+wM8wOPwRhoAeKNgR3AY6tA3ywB4gMfhjTQA8EbBxl37umuE9gf4SuD/+/P34Z+jX4bzF98PZ88fDqcHDz5u9V779f8RAkodloM6gwYA/grg//7jp+Hts/vD65+/GQ7396596Tgdr88B3nLgtWzbbBoA+BHwH/46Hs5+e1gN+VRHIPh1ng/nx8A/auOWwN6krMwaAPgVMSo9f/Xk7rVOPgX5uv06n857E+HxmfZZQnYNAPzFyfD+3YvhzdN7s4I+hl/nVzlA3B7imjZ30YA98P++/nXr9H0M99R7pfkqr0aAHNOuY3DSgDXw+nX96PGdRZ19DL/KU7kA3Q7oq9raTQO2wKtXbw17gV/l4vT9gXfUgCXw+r5We6utQDr3VuXznb4f9K4asAR+6R/oajsH1eOqdJP/W65DcNWAHfC67VILZIvjuGW3HNRTHaazBqyA1yCYue+zb9spqD4a6DElTvbP2yG4a8AKeI182xbQJT6vegH2vGBPtae7BqyA7/1D3VRnoXpNCZT983YE7hqwAV4PQUwBF2E/D9zMC/a6jhINnAw2wOsptghgT9VB9VsnUvbN1xGgASPgo6ZypQMgrZ8P7KlOEg2YAK+JCwpYkbdMorEc9GjgU9tapPQaLx0Z9FI3xtgvBzwaMAI+2kCLAvh4yyCc5YBHA0bAaw66MVwR36ueU98/2b9dZ4AGjIDXhJMRAR/XSfUE7O3Anmo/NGAEPL37MhBNwRVxPxowAp7vbwCPBoyA5xdagEcDRsBzDxbg0YAR8PpOySgroEcDJiPtBDzjqAEeDRgBz5NSAI8GjICPnNbz4Ey7zihqWt9KAxZj6ct9YffZTko7OG/dNWAFvOaOCzmnHQtONhth6K4BK+DlbNEGYKg+zo7b49qdNWAHvATmOid5D7iilumqAUvgXVcdiQpfj3q5asASeAnMcV2xHmBFLtNRA7bAS4gaX916QUlWj213C66ms3HTgDXwEoR6+Vb3ZlWOyqsRIse06xicNGAPvMDS97mlf8TR+VUOILcDeZO2dtEAwF9cClC3a+a+T6/zcevtso03gbDHsdk1APArwEtgWmxQo7G2TfP1eZ2HhSJ3B/bSwWTWAMCPgC9B11YPW+gJq1r4dZyO1+dWz8Pfuwd9iVk2DQD8FcCXoGurCRT0i65SPs2PpkkRtdV77df/rx7P37sL+VTsMmgA4CuBnxIB+/OBnTmmAA/wZCZGGgB4o2Bndi6urS7TAniAx+GNNADwRsHGBetcMHM7ATzA4/BGGgB4o2Bndi6urS57AXiAx+GNNADwRsHGBetcMHM7ATzA4/BGGgB4o2Bndi6urS57AXiAx+GNNADwRsHGBetcMHM7ATzA4/BGGgB4o2Bv4lwZHgXd5HpdjgV4gP/s8Nkme3CBeJPrBHhz4DUF16xTerFO3ucOdBMQWx0L8MbAZ5+wsRVEu1QOwBsC7zIl8y6B2KquAG8GvNOiC60g2qVyAN4IeLdllXYJxFZ1BXgT4OXsrdfRO9zfG/RSuSyxFWPQD8AbAK/v7LVz6xdI596qfJba6g89wBsAv/S6ebWdg+rRKnWlnPWdC8AnB1633mqBbHGc6gOM62Fs0S4Anxh4rZE29+KY23YKqg/r7QE8vf4CHY9G0G0L6BKfV71auBllfN2x4PALgBZFaL1/qJvqLFSvKG3kVg+ATwq8HoSZAi7CflbY/dp9W3Q+AJ8UeC1bHQHsqTqofi0EThlfdiwAnxT4qOl86QBI678EsVXHBPAJgdfkFQWsyFvVs5XQKedTBwPwCYHXmPnIoJe6qZ6A2NbpAT4h8NEG2xTAx1sG4bSFXZ0rwCcE/ux5zPvvY+BVTxy+LfQAnxD404MHO5HSq54AD/CIYMtOCIdvC9EudVo4/JZwRQw23+EBfkqXAJ8QeH6lB3iATwj2VFC5Dw/wU9rA4ZN2BIy0A/p10AN8UuAZSw/wAJ8U7nWB5Wk5gF+nCxw+cScQNa3nwZl+nRHAJwaeGW/6gbXOXSPsA/jEwGvuuJBz2rHgZLfBZQCfGHg5SrRBODww0zfrAPjkwAt65qXvC1mEVL7UAeANgGflGYAHeAPQS5C1ZW05oJcOcHgj8Fk9FugB3gj44vSt7s+rHFaNjdXJALwZ8IJe3+mX/iFP52e12Fiwk9Ibwq6gl5dukc19n17n49bbZRuXto6yxeFXAIgSlJb10IKTGpG3bZqvz+s8LBQZF3bpCuDNgV/tXPTAjZ6yq4Vfx+l4lo2KDflqjAEe4D+n+KvC0CQa+lVf6bnmyNOEk9rqvfaziMTuQL4aV4AH+LXAr4qEv3cT7nVxA3iAB3gjDQC8UbDX9fjsy+PeNbEEeIDH4Y00APBGwa5xAI7J7fgAD/A4vJEGAN4o2Lh3bveuiS/AAzwOb6QBgDcKdo0DcEzuLADgAR6HN9IAwBsFG/fO7d418QV4gMfhjTQA8EbBrnEAjsmdBQA8wOPwRhoAeKNg49653bsmvgAP8Di8kQYA3ijYNQ7AMbmzAIAHeBzeSAMAbxRs3Du3e9fEF+ABHoc30gDAVwabSR1xxwwaAPgrgGfaZiDPpgGAHwGvhRRmXZjh/JiUedTGNd81ex6TWQMAvyJGll7C0bNrAOBZXJEMxEgD9sBrOePapZUO9/eGbV4qh+WT42URThqwBl5LJh09vrMVxJt2ACpP5fb8jkrZl52OmwZsgVev3hr20jmoXJz+ErpeHZCjBiyBf//uRbM0vkA+3iq9Vz16id29XFcNWAL/5um9pmn8GPbyXvVwB6/X9btqwA543XYpwEXYqj69RO9arrMGrID/cH48vHpyNxTwqo8GerjC1/q63TVgBbxG0EVw9XEdVK/Wwnctz10DVsC3ut8+Bvq696qXK4Ctr9tdAzbA6yGI68Dr+f+qX2vxu5WHBk4GG+DfPrsfGnjVzw3A1teLBoyAj5rKlayCtH75gThowAR4TVxQwIq8VT1bu55LeWjgU4dqkdJrvHRk0EvdGGO/nMujASPgow20KICPtwzCWQ54NGAE/NnzmPffx8Crni4pduvrRANGwJ8ePNiJlF71bA2CS3lowAh4evflUuVd6TDQgBHwfH8DeDRgBDy/0AI8GjACnnuwAI8GjIDX90xGWQE9GjAZaSfgGUcN8GjACHielAJ4NGAEfOS0ngdn2nVGUdP6VhqwGEtf7hW7z3ZS2sF5664BK+A1d1zIOe1YcLLZCEN3DVgBL2eLNgBD9XF23B7X7qwBO+AlMNc5yXvAFbVMVw1YAu+66khU+HrUy1UDlsBLYI7rivUAK3KZjhqwBV5C1Pjq1gtKsnpsu1twNZ2NmwasgZcg1Mu3ujerclRejRA5pl3H4KQBe+AFlr7PLf0jjs6vcgC5HcibtLWLBgD+4lKAul0z9316nY9bb5dtvAmEPY7NrgGAXwFeAtNigxqNtW2ar8/rPCwUuTuwlw4mswYAfgR8Cbq2ethCT1jVwq/jdLw+t3oe/t496EvMsmkA4K8AvgRdW02goF90lfJpfjRNiqit3mu//n/1eP7eXcinYpdBAwBfCfyUCNifD+zMMQV4gCczMdIAwBsFO7NzcW11mRbAAzwOb6QBgDcKNi5Y54KZ2wngAR6HN9IAwBsFO7NzcW112QvAAzwOb6QBgDcKNi5Y54KZ2wngAR6HN9IAwBsFO7NzcW112QvAAzwOb6QBgDcKNi5Y54KZ2wngAR6HN9IAwBsFO7NzcW112QvAAzwOb6QBgDcKNi5Y54KZ2wngAR6HN9IAwBsFO7NzcW112QvAAzwOb6QBgDcKNi5Y54KZ2wngAR6HN9IAwBsFO7NzcW112QvAAzwOb6QBgDcKNi5Y54KZ2wngAR6HN9IAwBsFO7NzcW112QvAAzwOb6QBgDcKNi5Y54KZ26kJ8CqEF22ABmJo4HB/b6h53dK/lz/cflRzMMfUNSrtRDtF1QDAV/aMUQNIvehcNtEAwAN8VSq4iag4Nm4nBPAAD/BGGgB4o2DjvHGdt1VsAB7gcXgjDQC8UbBbuQjlxM0kAB7gcXgjDQC8UbBx3rjO2yo2AA/wOLyRBv4H/fhzYZDvMk0AAAAASUVORK5CYII=;sketch=1;" vertex="1" parent="1">
          <mxGeometry x="353" y="-799" width="27" height="27" as="geometry" />
        </mxCell>
        <mxCell id="PN5amJy842sLwaP2SSI1-16" value="Client C3" style="text;html=1;strokeColor=none;fillColor=none;align=center;verticalAlign=middle;whiteSpace=wrap;fontStyle=1;sketch=1;" vertex="1" parent="1">
          <mxGeometry x="465" y="-760" width="70" height="20" as="geometry" />
        </mxCell>
        <mxCell id="PN5amJy842sLwaP2SSI1-17" value="" style="outlineConnect=0;dashed=0;verticalLabelPosition=bottom;verticalAlign=top;align=center;html=1;fontSize=12;fontStyle=0;aspect=fixed;pointerEvents=1;shape=mxgraph.aws4.user;fillColor=#333333;strokeWidth=1;sketch=1;" vertex="1" parent="1">
          <mxGeometry x="481" y="-740" width="38" height="38" as="geometry" />
        </mxCell>
        <mxCell id="PN5amJy842sLwaP2SSI1-19" value="" style="shape=image;verticalLabelPosition=bottom;labelBackgroundColor=#ffffff;verticalAlign=top;aspect=fixed;imageAspect=0;image=data:image/png,iVBORw0KGgoAAAANSUhEUgAAAPwAAAD8CAYAAABTq8lnAAAN8UlEQVR4Ae2dwW4URxRF+RYsdkj5Fb6A3yALpLDPB0RykCKhZJ0NK/YOyoIVii2BvEEmQrZiWUk2YUFHF1R4aKbtGk931Zt3D9KoPU1PV3W9e+q+ma6uunWLf7QALeDVAi9/uP2Il18bHP14+zvi7hX3jz2bgn64vzfwog3QQG4NADwdHR29kQYA3ijYuHdu966JL8ADPA5vpAGANwp2jQNwTO4sAOABHoc30gDAGwUb987t3jXxBXiAx+GNNADwRsGucQCOyZ0FADzA4/BGGgB4o2Dj3rnduya+NwL+9ODbgRdtgAbiaKAGdh1zY+CHi5OBF22ABvprQB0vwNMh0SGbaADgTQKNu/Z31wgxAHiAx92NNADwRsGO4DDUoW+mAfAAj8MbaQDgjYKNu/Z11wjtD/AAj8MbaQDgjYIdwWGoQ98sA+ABHoc30gDAGwUbd+3rrhHaH+ABHoc30gDAGwU7gsNQh75ZBsADPA5vpAGANwo27trXXSO0P8ADPA5vpAGANwp2BIehDn2zDIAHeBzeSAMAbxRs3LWvu0Zof4AHeBzeSAMAbxTsCA5DHfpmGQAP8Di8kQYA3ijYuGtfd43Q/gAP8Di8kQYA3ijYERyGOvTNMgAe4HF4Iw0AvFGwcde+7hqh/QEe4HF4Iw0AvFGwIzgMdeibZQA8wOPwRhoAeKNg46593TVC+wM8wOPwRhoAeKNgR3AY6tA3ywB4gMfhjTQA8EbBxl37umuE9gf4SuD/+/P34Z+jX4bzF98PZ88fDqcHDz5u9V779f8RAkodloM6gwYA/grg//7jp+Hts/vD65+/GQ7396596Tgdr88B3nLgtWzbbBoA+BHwH/46Hs5+e1gN+VRHIPh1ng/nx8A/auOWwN6krMwaAPgVMSo9f/Xk7rVOPgX5uv06n857E+HxmfZZQnYNAPzFyfD+3YvhzdN7s4I+hl/nVzlA3B7imjZ30YA98P++/nXr9H0M99R7pfkqr0aAHNOuY3DSgDXw+nX96PGdRZ19DL/KU7kA3Q7oq9raTQO2wKtXbw17gV/l4vT9gXfUgCXw+r5We6utQDr3VuXznb4f9K4asAR+6R/oajsH1eOqdJP/W65DcNWAHfC67VILZIvjuGW3HNRTHaazBqyA1yCYue+zb9spqD4a6DElTvbP2yG4a8AKeI182xbQJT6vegH2vGBPtae7BqyA7/1D3VRnoXpNCZT983YE7hqwAV4PQUwBF2E/D9zMC/a6jhINnAw2wOsptghgT9VB9VsnUvbN1xGgASPgo6ZypQMgrZ8P7KlOEg2YAK+JCwpYkbdMorEc9GjgU9tapPQaLx0Z9FI3xtgvBzwaMAI+2kCLAvh4yyCc5YBHA0bAaw66MVwR36ueU98/2b9dZ4AGjIDXhJMRAR/XSfUE7O3Anmo/NGAEPL37MhBNwRVxPxowAp7vbwCPBoyA5xdagEcDRsBzDxbg0YAR8PpOySgroEcDJiPtBDzjqAEeDRgBz5NSAI8GjICPnNbz4Ey7zihqWt9KAxZj6ct9YffZTko7OG/dNWAFvOaOCzmnHQtONhth6K4BK+DlbNEGYKg+zo7b49qdNWAHvATmOid5D7iilumqAUvgXVcdiQpfj3q5asASeAnMcV2xHmBFLtNRA7bAS4gaX916QUlWj213C66ms3HTgDXwEoR6+Vb3ZlWOyqsRIse06xicNGAPvMDS97mlf8TR+VUOILcDeZO2dtEAwF9cClC3a+a+T6/zcevtso03gbDHsdk1APArwEtgWmxQo7G2TfP1eZ2HhSJ3B/bSwWTWAMCPgC9B11YPW+gJq1r4dZyO1+dWz8Pfuwd9iVk2DQD8FcCXoGurCRT0i65SPs2PpkkRtdV77df/rx7P37sL+VTsMmgA4CuBnxIB+/OBnTmmAA/wZCZGGgB4o2Bndi6urS7TAniAx+GNNADwRsHGBetcMHM7ATzA4/BGGgB4o2Bndi6urS57AXiAx+GNNADwRsHGBetcMHM7ATzA4/BGGgB4o2Bndi6urS57AXiAx+GNNADwRsHGBetcMHM7ATzA4/BGGgB4o2Bv4lwZHgXd5HpdjgV4gP/s8Nkme3CBeJPrBHhz4DUF16xTerFO3ucOdBMQWx0L8MbAZ5+wsRVEu1QOwBsC7zIl8y6B2KquAG8GvNOiC60g2qVyAN4IeLdllXYJxFZ1BXgT4OXsrdfRO9zfG/RSuSyxFWPQD8AbAK/v7LVz6xdI596qfJba6g89wBsAv/S6ebWdg+rRKnWlnPWdC8AnB1633mqBbHGc6gOM62Fs0S4Anxh4rZE29+KY23YKqg/r7QE8vf4CHY9G0G0L6BKfV71auBllfN2x4PALgBZFaL1/qJvqLFSvKG3kVg+ATwq8HoSZAi7CflbY/dp9W3Q+AJ8UeC1bHQHsqTqofi0EThlfdiwAnxT4qOl86QBI678EsVXHBPAJgdfkFQWsyFvVs5XQKedTBwPwCYHXmPnIoJe6qZ6A2NbpAT4h8NEG2xTAx1sG4bSFXZ0rwCcE/ux5zPvvY+BVTxy+LfQAnxD404MHO5HSq54AD/CIYMtOCIdvC9EudVo4/JZwRQw23+EBfkqXAJ8QeH6lB3iATwj2VFC5Dw/wU9rA4ZN2BIy0A/p10AN8UuAZSw/wAJ8U7nWB5Wk5gF+nCxw+cScQNa3nwZl+nRHAJwaeGW/6gbXOXSPsA/jEwGvuuJBz2rHgZLfBZQCfGHg5SrRBODww0zfrAPjkwAt65qXvC1mEVL7UAeANgGflGYAHeAPQS5C1ZW05oJcOcHgj8Fk9FugB3gj44vSt7s+rHFaNjdXJALwZ8IJe3+mX/iFP52e12Fiwk9Ibwq6gl5dukc19n17n49bbZRuXto6yxeFXAIgSlJb10IKTGpG3bZqvz+s8LBQZF3bpCuDNgV/tXPTAjZ6yq4Vfx+l4lo2KDflqjAEe4D+n+KvC0CQa+lVf6bnmyNOEk9rqvfaziMTuQL4aV4AH+LXAr4qEv3cT7nVxA3iAB3gjDQC8UbDX9fjsy+PeNbEEeIDH4Y00APBGwa5xAI7J7fgAD/A4vJEGAN4o2Lh3bveuiS/AAzwOb6QBgDcKdo0DcEzuLADgAR6HN9IAwBsFG/fO7d418QV4gMfhjTQA8EbBrnEAjsmdBQA8wOPwRhoAeKNg49653bsmvgAP8Di8kQYA3ijYNQ7AMbmzAIAHeBzeSAMAbxRs3Du3e9fEF+ABHoc30gDAVwabSR1xxwwaAPgrgGfaZiDPpgGAHwGvhRRmXZjh/JiUedTGNd81ex6TWQMAvyJGll7C0bNrAOBZXJEMxEgD9sBrOePapZUO9/eGbV4qh+WT42URThqwBl5LJh09vrMVxJt2ACpP5fb8jkrZl52OmwZsgVev3hr20jmoXJz+ErpeHZCjBiyBf//uRbM0vkA+3iq9Vz16id29XFcNWAL/5um9pmn8GPbyXvVwB6/X9btqwA543XYpwEXYqj69RO9arrMGrID/cH48vHpyNxTwqo8GerjC1/q63TVgBbxG0EVw9XEdVK/Wwnctz10DVsC3ut8+Bvq696qXK4Ctr9tdAzbA6yGI68Dr+f+qX2vxu5WHBk4GG+DfPrsfGnjVzw3A1teLBoyAj5rKlayCtH75gThowAR4TVxQwIq8VT1bu55LeWjgU4dqkdJrvHRk0EvdGGO/nMujASPgow20KICPtwzCWQ54NGAE/NnzmPffx8Crni4pduvrRANGwJ8ePNiJlF71bA2CS3lowAh4evflUuVd6TDQgBHwfH8DeDRgBDy/0AI8GjACnnuwAI8GjIDX90xGWQE9GjAZaSfgGUcN8GjACHielAJ4NGAEfOS0ngdn2nVGUdP6VhqwGEtf7hW7z3ZS2sF5664BK+A1d1zIOe1YcLLZCEN3DVgBL2eLNgBD9XF23B7X7qwBO+AlMNc5yXvAFbVMVw1YAu+66khU+HrUy1UDlsBLYI7rivUAK3KZjhqwBV5C1Pjq1gtKsnpsu1twNZ2NmwasgZcg1Mu3ujerclRejRA5pl3H4KQBe+AFlr7PLf0jjs6vcgC5HcibtLWLBgD+4lKAul0z9316nY9bb5dtvAmEPY7NrgGAXwFeAtNigxqNtW2ar8/rPCwUuTuwlw4mswYAfgR8Cbq2ethCT1jVwq/jdLw+t3oe/t496EvMsmkA4K8AvgRdW02goF90lfJpfjRNiqit3mu//n/1eP7eXcinYpdBAwBfCfyUCNifD+zMMQV4gCczMdIAwBsFO7NzcW11mRbAAzwOb6QBgDcKNi5Y54KZ2wngAR6HN9IAwBsFO7NzcW112QvAAzwOb6QBgDcKNi5Y54KZ2wngAR6HN9IAwBsFO7NzcW112QvAAzwOb6QBgDcKNi5Y54KZ2wngAR6HN9IAwBsFO7NzcW112QvAAzwOb6QBgDcKNi5Y54KZ2wngAR6HN9IAwBsFO7NzcW112QvAAzwOb6QBgDcKNi5Y54KZ2wngAR6HN9IAwBsFO7NzcW112QvAAzwOb6QBgDcKNi5Y54KZ2wngAR6HN9IAwBsFO7NzcW112QvAAzwOb6QBgDcKNi5Y54KZ26kJ8CqEF22ABmJo4HB/b6h53dK/lz/cflRzMMfUNSrtRDtF1QDAV/aMUQNIvehcNtEAwAN8VSq4iag4Nm4nBPAAD/BGGgB4o2DjvHGdt1VsAB7gcXgjDQC8UbBbuQjlxM0kAB7gcXgjDQC8UbBx3rjO2yo2AA/wOLyRBv4H/fhzYZDvMk0AAAAASUVORK5CYII=;sketch=1;" vertex="1" parent="1">
          <mxGeometry x="533" y="-799" width="27" height="27" as="geometry" />
        </mxCell>
        <mxCell id="PN5amJy842sLwaP2SSI1-20" value="Server" style="shape=datastore;whiteSpace=wrap;html=1;fillColor=#dae8fc;strokeColor=#6c8ebf;sketch=1;fillStyle=cross-hatch;fontStyle=1;fontColor=#0066CC;" vertex="1" parent="1">
          <mxGeometry x="255" y="-960" width="130" height="40" as="geometry" />
        </mxCell>
      </root>
    </mxGraphModel>
  </diagram>
</mxfile>
